<svg width="16" height="16" viewBox="0 0 16 16" fill="none" xmlns="http://www.w3.org/2000/svg">
<path d="M11 13.4999C11 13.5905 11.0245 13.6793 11.0711 13.7569C11.1176 13.8346 11.1843 13.8982 11.2641 13.9409C11.3439 13.9836 11.4338 14.0038 11.5242 13.9994C11.6147 13.995 11.7022 13.9662 11.7775 13.9159L14.7774 11.916C14.8459 11.8703 14.902 11.8085 14.9409 11.7359C14.9797 11.6633 15 11.5823 15 11.5C15 11.4177 14.9797 11.3367 14.9409 11.2641C14.902 11.1915 14.8459 11.1297 14.7774 11.084L11.7775 9.08407C11.7022 9.03383 11.6147 9.00498 11.5242 9.00059C11.4338 8.9962 11.3439 9.01643 11.2641 9.05914C11.1843 9.10184 11.1176 9.16541 11.0711 9.24306C11.0245 9.32072 11 9.40954 11 9.50006V13.4999Z" fill="#5EFF97"/>
<path d="M5.75039 2C5.92237 2 6.06205 2.13744 6.06205 2.30684V13.6905C6.06205 13.8598 5.92237 13.9974 5.75039 13.9974H3.41426C2.63369 13.9974 2 13.3734 2 12.605V3.39228C2 2.62388 2.63369 2 3.41426 2H5.75039Z" fill="white"/>
<path d="M10 8.80112H7.50837C7.31924 8.80112 7.25126 8.95228 7.35666 9.13848L9.48785 12.9034C9.61139 13.1217 9.79144 13.3251 10 13.4961V8.80112Z" fill="white"/>
<path d="M10.1249 2C11.6943 2 12.9683 3.25436 12.9683 4.79932C12.9683 6.3444 11.6943 7.59876 10.1249 7.59876H7.61603C7.43137 7.59876 7.28153 7.45112 7.28153 7.26936V2.32932C7.28153 2.14752 7.43137 2 7.61603 2H10.1249Z" fill="white"/>
</svg>
