<svg width="16" height="16" viewBox="0 0 16 16" fill="none" xmlns="http://www.w3.org/2000/svg">
<path fill-rule="evenodd" clip-rule="evenodd" d="M6.06205 2.30684C6.06205 2.13744 5.92237 2 5.75039 2H3.41426C2.63369 2 2 2.62388 2 3.39228V12.605C2 13.3734 2.63369 13.9974 3.41426 13.9974H5.75039C5.92237 13.9974 6.06205 13.8598 6.06205 13.6905V2.30684ZM12.8192 9.89756C12.4766 9.2924 11.6995 8.80112 11.0848 8.80112H7.50837C7.31924 8.80112 7.25126 8.95228 7.35666 9.13848L9.48785 12.9034C9.83044 13.5087 10.6076 14 11.2223 14H14.7986C14.9878 14 15.0558 13.8488 14.9503 13.6625L12.8192 9.89756ZM12.9683 4.79932C12.9683 3.25436 11.6943 2 10.1249 2H7.61603C7.43137 2 7.28153 2.14752 7.28153 2.32932V7.26936C7.28153 7.45112 7.43137 7.59876 7.61603 7.59876H10.1249C11.6943 7.59876 12.9683 6.3444 12.9683 4.79932Z" fill="white"/>
<path fill-rule="evenodd" clip-rule="evenodd" d="M12.9683 4.79932C12.9683 3.25436 11.6943 2 10.1249 2H7.61603C7.43137 2 7.28153 2.14752 7.28153 2.32932V7.26936C7.28153 7.45112 7.43137 7.59876 7.61603 7.59876H10.1249C11.6943 7.59876 12.9683 6.3444 12.9683 4.79932Z" fill="#5FFF97"/>
<path fill-rule="evenodd" clip-rule="evenodd" d="M12.8192 9.89756C12.4766 9.2924 11.6995 8.80112 11.0848 8.80112H7.50836C7.31924 8.80112 7.25126 8.95228 7.35666 9.13848L9.48785 12.9034C9.83044 13.5087 10.6076 14 11.2223 14H14.7986C14.9878 14 15.0558 13.8488 14.9503 13.6625L12.8192 9.89756Z" fill="#FF5F5F"/>
</svg>
